<?xml version="1.0" encoding="utf-8"?>
<!-- Generator: Adobe Illustrator 25.4.1, SVG Export Plug-In . SVG Version: 6.00 Build 0)  -->
<svg version="1.1" id="Layer_1" xmlns="http://www.w3.org/2000/svg" xmlns:xlink="http://www.w3.org/1999/xlink" x="0px" y="0px" viewBox="0 0 677.106 653.942" style="enable-background:new 0 0 677.106 653.942;" xml:space="preserve">
<g>
	
		<ellipse transform="matrix(0.9431 -0.3326 0.3326 0.9431 -31.2433 177.9357)" style="fill:#FFFFFF;stroke:#000000;stroke-width:1.0088;stroke-miterlimit:10;" cx="504.195" cy="180.241" rx="138.897" ry="138.897"/>
	<path style="fill:#FFFFFF;stroke:#000000;stroke-width:1.0088;stroke-miterlimit:10;" d="M625.935,180.241   c0,67.236-54.506,121.74-121.741,121.74c-67.234,0-121.739-54.505-121.739-121.74c0-67.236,54.506-121.741,121.739-121.741   C571.43,58.5,625.935,113.006,625.935,180.241z"/>
</g>
<g>
	<rect x="641.01" y="317.056" width="2.082" height="2.082"/>
	<rect x="365.297" y="317.056" width="2.082" height="2.082"/>
	<rect x="641.01" y="41.342" width="2.082" height="2.082"/>
	<rect x="365.297" y="41.342" width="2.082" height="2.082"/>
</g>
<g>
	
		<ellipse transform="matrix(0.9426 -0.334 0.334 0.9426 -49.3483 73.4459)" style="fill:#FFFFFF;stroke:#000000;stroke-width:1.0088;stroke-miterlimit:10;" cx="188.926" cy="180.241" rx="138.897" ry="138.897"/>
	<path style="fill:#FFFFFF;stroke:#000000;stroke-width:1.0088;stroke-miterlimit:10;" d="M310.667,180.241   c0,67.236-54.506,121.74-121.741,121.74c-67.234,0-121.739-54.505-121.739-121.74c0-67.236,54.506-121.741,121.739-121.741   C256.161,58.5,310.667,113.006,310.667,180.241z"/>
</g>
<g>
	<rect x="325.742" y="317.056" width="2.082" height="2.082"/>
	<rect x="50.028" y="317.056" width="2.082" height="2.082"/>
	<rect x="325.742" y="41.342" width="2.082" height="2.082"/>
	<rect x="50.028" y="41.342" width="2.082" height="2.082"/>
</g>
<g>
	
		<ellipse transform="matrix(0.9177 -0.3973 0.3973 0.9177 -146.6901 239.2782)" style="fill:#FFFFFF;stroke:#000000;stroke-width:1.0088;stroke-miterlimit:10;" cx="504.195" cy="473.701" rx="138.897" ry="138.897"/>
	<path style="fill:#FFFFFF;stroke:#000000;stroke-width:1.0088;stroke-miterlimit:10;" d="M625.935,473.702   c0,67.236-54.506,121.74-121.741,121.74c-67.234,0-121.739-54.505-121.739-121.74S436.96,351.96,504.194,351.96   C571.43,351.96,625.935,406.466,625.935,473.702z"/>
</g>
<g>
	<rect x="641.01" y="610.516" width="2.082" height="2.082"/>
	<rect x="365.297" y="610.516" width="2.082" height="2.082"/>
	<rect x="641.01" y="334.802" width="2.082" height="2.082"/>
	<rect x="365.297" y="334.802" width="2.082" height="2.082"/>
</g>
<g>
	
		<ellipse transform="matrix(0.917 -0.399 0.399 0.917 -173.31 114.7153)" style="fill:#FFFFFF;stroke:#000000;stroke-width:1.0088;stroke-miterlimit:10;" cx="188.926" cy="473.701" rx="138.897" ry="138.897"/>
	<path style="fill:#FFFFFF;stroke:#000000;stroke-width:1.0088;stroke-miterlimit:10;" d="M310.667,473.702   c0,67.236-54.506,121.74-121.741,121.74c-67.234,0-121.739-54.505-121.739-121.74S121.692,351.96,188.926,351.96   C256.161,351.96,310.667,406.466,310.667,473.702z"/>
</g>
<g>
	<rect x="325.742" y="610.516" width="2.082" height="2.082"/>
	<rect x="50.028" y="610.516" width="2.082" height="2.082"/>
	<rect x="325.742" y="334.802" width="2.082" height="2.082"/>
	<rect x="50.028" y="334.802" width="2.082" height="2.082"/>
</g>
<g>
	<text transform="matrix(1 0 0 1 472.3595 185.8901)" style="fill:#1B181C; font-family:'FbKidushPro'; font-size:15.6369px;">
ימין למעלה</text>
</g>
<g>
	<text transform="matrix(1 0 0 1 151.2317 185.8901)" style="fill:#1B181C; font-family:'FbKidushPro'; font-size:15.6369px;">
שמאל למעלה</text>
</g>
<g>
	<text transform="matrix(1 0 0 1 478.8023 484.7593)" style="fill:#1B181C; font-family:'FbKidushPro'; font-size:15.6369px;">
ימין למטה</text>
</g>
<g>
	<text transform="matrix(1 0 0 1 157.5878 484.7597)" style="fill:#1B181C; font-family:'FbKidushPro'; font-size:15.6369px;">
שמאל למטה</text>
</g>
<g>
	<path id="SVGID_x5F_1_x5F_" style="fill:none;" transform="rotate(0.11 504.195 180.241)" d="M505.606,303.849c-68.016,0.448-123.518-54.328-123.966-122.345   c-0.448-68.015,54.328-123.518,122.344-123.966C572,57.091,627.5,111.866,627.948,179.882   C628.396,247.899,573.622,303.401,505.606,303.849z"/>
	<text style="fill:#1B181C; font-family:'FbKidushPro'; font-size:15.00px;" dominant-baseline="central" dy="-0.7198em" alignment-baseline="middle">	<textPath xlink:href="#SVGID_x5F_1_x5F_" text-anchor="middle" startOffset="50%" dominant-baseline="central" alignment-baseline="middle">
שלום רב לאוהבי תורתך ואין למו מכשול	</textPath>
</text>
</g>
<g>
	<path id="SVGID_x5F_00000062157211373047103990000001603099582834361786_x5F_" transform="rotate(142.63 504.195 180.241)" style="fill:none;" d="M421.877,288.194   c59.891,45.7,145.489,34.194,191.189-25.697c45.699-59.89,34.197-145.489-25.694-191.188s-145.49-34.195-191.19,25.695   C350.482,156.895,361.986,242.495,421.877,288.194z"/>
	<text style="fill:#1B181C; font-family:'FbKidushPro'; font-size:15.00px;" dominant-baseline="central" dy="-0.5797em" alignment-baseline="middle">	<textPath xlink:href="#SVGID_x5F_00000062157211373047103990000001603099582834361786_x5F_" text-anchor="middle" startOffset="50%" dominant-baseline="central" alignment-baseline="middle">
וזאת התורה אשר שם משה לפני בני ישראל	</textPath>
</text>
</g>

<g>
	<path id="SVGID_x5F_00000140735024446407489870000013397560646709516463_x5F_" transform="rotate(135.25 188.926 180.241)" style="fill:none;" d="M276.308,93.608   c48.095,48.095,48.096,126.075-0.001,174.172c-48.095,48.095-126.075,48.095-174.171,0S54.042,141.706,102.137,93.61   C150.234,45.514,228.212,45.513,276.308,93.608z"/>
	<text style="fill:#1B181C; font-family:'FbKidushPro'; font-size:15.00px;" dominant-baseline="central" dy="-0.6344em" alignment-baseline="middle">	<textPath xlink:href="#SVGID_x5F_00000140735024446407489870000013397560646709516463_x5F_" text-anchor="middle" startOffset="50%" dominant-baseline="central" alignment-baseline="middle">
וענתה השירה הזאת לפניו לעד כי לא תשכח מפי זרעו	</textPath>
</text>
</g>
<g>
	<path id="SVGID_x5F_00000021081279798260901530000000396926870071627440_x5F_" transform="rotate(165.45 188.926 180.241)" style="fill:none;" d="M155.038,312.886   c72.965,18.79,147.346-25.129,166.136-98.095c18.79-72.964-25.127-147.347-98.092-166.137   c-72.965-18.79-147.348,25.129-166.138,98.093C38.155,219.713,82.073,294.097,155.038,312.886z"/>
	<text style="fill:#1B181C; font-family:'FbKidushPro'; font-size:15.00px;" dominant-baseline="central" dy="-0.6119em" alignment-baseline="middle">	<textPath xlink:href="#SVGID_x5F_00000021081279798260901530000000396926870071627440_x5F_" text-anchor="middle" startOffset="50%" dominant-baseline="central" alignment-baseline="middle">
כי הם חיינו ואורך ימינו ובהם נהגה יומם ולילה	</textPath>
</text>
</g>
<g>
	<path id="SVGID_x5F_00000025422716564239638810000003699759242087028666_x5F_" transform="rotate(179.82 504.195 473.702)" style="fill:none;" d="M503.794,350.628   c67.967,0,123.068,55.099,123.068,123.066c0,67.968-55.101,123.068-123.068,123.068c-67.968,0-123.066-55.099-123.066-123.068   C380.728,405.728,435.826,350.628,503.794,350.628z"/>
	<text style="fill:#1B181C; font-family:'FbKidushPro'; font-size:15.00px;" dominant-baseline="central" dy="-0.6218em" alignment-baseline="middle">	<textPath xlink:href="#SVGID_x5F_00000025422716564239638810000003699759242087028666_x5F_" text-anchor="middle" startOffset="50%" dominant-baseline="central" alignment-baseline="middle">
ועתה כתבו לכם את השירה הזאת ולמדה את בני ישראל	</textPath>
</text>
</g>
<g>
	<path id="SVGID_x5F_00000053539854776271943330000002365811869264300222_x5F_" transform="rotate(183.25 504.195 473.702)" style="fill:none;" d="M511.115,609.455   c74.979-4.043,132.482-68.102,128.439-143.081c-4.043-74.978-68.1-132.482-143.079-128.439   c-74.977,4.042-132.483,68.1-128.441,143.079C372.077,555.992,436.138,613.498,511.115,609.455z"/>
	<text style="fill:#1B181C; font-family:'FbKidushPro'; font-size:15.00px;" dominant-baseline="central" dy="-0.6133em" alignment-baseline="middle">	<textPath xlink:href="#SVGID_x5F_00000053539854776271943330000002365811869264300222_x5F_" text-anchor="middle" startOffset="50%" dominant-baseline="central" alignment-baseline="middle">
ארך ימים בימינה בשמאלה עשר וכבוד	</textPath>
</text>
</g>
<g>
	<path id="SVGID_x5F_00000139291303894699230280000008140933820947884692_x5F_" transform="rotate(172.14 188.926 473.702)" style="fill:none;" d="M206.353,351.826   c67.305,9.461,114.2,71.693,104.739,138.999c-9.461,67.306-71.695,114.199-139,104.738   c-67.307-9.461-114.198-71.692-104.737-138.999C76.816,389.259,139.046,342.365,206.353,351.826z"/>
	<text style="fill:#1B181C; font-family:'FbKidushPro'; font-size:15.00px;" dominant-baseline="central" dy="-0.7069em" alignment-baseline="middle">	<textPath xlink:href="#SVGID_x5F_00000139291303894699230280000008140933820947884692_x5F_" text-anchor="middle" startOffset="50%" dominant-baseline="central" alignment-baseline="middle">
טוב לי תורת פיך מאלפי זהב וכסף</textPath>
</text>
</g>
<g>
	<path id="SVGID_x5F_00000084496392451243151820000003525259066229662625_x5F_" transform="rotate(179.87 188.926 473.702)" style="fill:none;" d="M189.224,610.046   c75.305,0,136.35-61.047,136.35-136.351c0-75.305-61.045-136.351-136.35-136.351c-75.303,0-136.352,61.046-136.352,136.35   C52.872,548.999,113.921,610.046,189.224,610.046z"/>
	<text style="fill:#1B181C; font-family:'FbKidushPro'; font-size:15.00px;" dominant-baseline="central" dy="-0.6302em" alignment-baseline="middle">	<textPath xlink:href="#SVGID_x5F_00000084496392451243151820000003525259066229662625_x5F_" text-anchor="middle" startOffset="50%" dominant-baseline="central" alignment-baseline="middle">
מה אהבתי תורתך כל היום היא שיחתי	</textPath>
</text>
</g>
</svg>