<?xml version="1.0" encoding="utf-8"?>
<!-- Generator: Adobe Illustrator 25.4.1, SVG Export Plug-In . SVG Version: 6.00 Build 0)  -->
<svg version="1.1" id="Layer_1" xmlns="http://www.w3.org/2000/svg" xmlns:xlink="http://www.w3.org/1999/xlink" x="0px" y="0px" viewBox="0 0 686.965 644.968" style="enable-background:new 0 0 686.965 644.968;" xml:space="preserve">
<ellipse transform="matrix(0.7071 -0.7071 0.7071 0.7071 -61.5275 171.0809)" style="fill:#FFFFFF;stroke:#000000;stroke-miterlimit:10;" cx="175.749" cy="159.811" rx="145.984" ry="145.984"/>
<circle style="fill:#FFFFFF;stroke:#000000;stroke-miterlimit:10;" cx="175.749" cy="159.811" r="131.762"/>
<ellipse transform="matrix(0.1384 -0.9904 0.9904 0.1384 282.4089 644.2427)" style="fill:#FFFFFF;stroke:#000000;stroke-miterlimit:10;" cx="511.474" cy="159.811" rx="145.984" ry="145.984"/>
<circle style="fill:#FFFFFF;stroke:#000000;stroke-miterlimit:10;" cx="511.474" cy="159.811" r="131.762"/>
<ellipse transform="matrix(0.7071 -0.7071 0.7071 0.7071 -188.8023 501.9235)" style="fill:#FFFFFF;stroke:#000000;stroke-miterlimit:10;" cx="511.474" cy="478.866" rx="145.984" ry="145.984"/>
<ellipse transform="matrix(0.7071 -0.7071 0.7071 0.7071 -188.8023 501.9235)" style="fill:#FFFFFF;stroke:#000000;stroke-miterlimit:10;" cx="511.474" cy="478.866" rx="131.762" ry="131.762"/>
<ellipse transform="matrix(0.7071 -0.7071 0.7071 0.7071 -287.1339 264.5301)" style="fill:#FFFFFF;stroke:#000000;stroke-miterlimit:10;" cx="175.749" cy="478.866" rx="145.984" ry="145.984"/>
<ellipse transform="matrix(0.7071 -0.7071 0.7071 0.7071 -287.1339 264.5301)" style="fill:#FFFFFF;stroke:#000000;stroke-miterlimit:10;" cx="175.749" cy="478.866" rx="131.762" ry="131.762"/>

<g>
	<rect x="318.9" y="13.826" width="2.835" height="2.835" style="fill:#1B181C;"/>
	<rect x="29.766" y="13.826" width="2.835" height="2.835" style="fill:#1B181C;"/>
	<rect x="318.9" y="302.96" width="2.835" height="2.835" style="fill:#1B181C;"/>
	<rect x="29.766" y="302.96" width="2.835" height="2.835" style="fill:#1B181C;"/>
</g>
<g>
	<rect x="654.624" y="13.826" width="2.835" height="2.835" style="fill:#1B181C;"/>
	<rect x="365.491" y="13.826" width="2.835" height="2.835" style="fill:#1B181C;"/>
	<rect x="654.624" y="302.96" width="2.835" height="2.835" style="fill:#1B181C;"/>
	<rect x="365.491" y="302.96" width="2.835" height="2.835" style="fill:#1B181C;"/>
</g>
<g>
	<rect x="318.9" y="332.882" width="2.835" height="2.835" style="fill:#1B181C;"/>
	<rect x="29.766" y="332.882" width="2.835" height="2.835" style="fill:#1B181C;"/>
	<rect x="318.9" y="622.016" width="2.835" height="2.835" style="fill:#1B181C;"/>
	<rect x="29.766" y="622.016" width="2.835" height="2.835" style="fill:#1B181C;"/>
</g>
<g>
	<rect x="654.624" y="332.882" width="2.835" height="2.835" style="fill:#1B181C;"/>
	<rect x="365.491" y="332.882" width="2.835" height="2.835" style="fill:#1B181C;"/>
	<rect x="654.624" y="622.016" width="2.835" height="2.835" style="fill:#1B181C;"/>
	<rect x="365.491" y="622.016" width="2.835" height="2.835" style="fill:#1B181C;"/>
</g>

<g>
	<text transform="matrix(1 0 0 1 479.6374 162.7668)" style="fill:#1B181C; font-family:'FbKidushPro'; font-size:15.6369px;">
ימין למעלה</text>
</g>
<g>
	<text transform="matrix(1 0 0 1 138.0528 166.7348)" style="fill:#1B181C; font-family:'FbKidushPro'; font-size:15.6369px;">
שמאל למעלה</text>
</g>
<g>
	<text transform="matrix(1 0 0 1 486.8777 493.0808)" style="fill:#1B181C; font-family:'FbKidushPro'; font-size:15.6369px;">
ימין למטה</text>
</g>
<g>
	<text transform="matrix(1 0 0 1 140.9174 493.0808)" style="fill:#1B181C; font-family:'FbKidushPro'; font-size:15.6369px;">
שמאל למטה</text>
</g>
<g>
	<path id="SVGID_x5F_1_x5F_" style="fill:none;" transform="rotate(184.85 511.474 159.811)" d="M501.574,28.469c72.543-5.812,136.064,48.285,141.877,120.829   c5.812,72.543-48.285,136.064-120.828,141.876c-72.543,5.812-136.062-48.285-141.875-120.827   C374.936,97.803,429.031,34.282,501.574,28.469z"/>
	<text style="fill:#1B181C; font-family:'FbKidushPro'; font-size:14.00px;" dominant-baseline="central" dy="-0.7101em" alignment-baseline="middle">
		<textPath xlink:href="#SVGID_x5F_1_x5F_" text-anchor="middle" startOffset="50%" dominant-baseline="central" alignment-baseline="middle">
שלום רב לאוהבי תורתך ואין למו מכשול	</textPath>
	</text>
</g>
<g>
	<path id="SVGID_x5F_00000024698805075486680010000014809996075452820670_x5F_" transform="rotate(138.65 511.474 159.811)" style="fill:none;" d="M415.717,268.473   c60.33,53.13,152.308,47.292,205.439-13.039c53.13-60.33,47.295-152.308-13.035-205.438c-60.33-53.13-152.31-47.294-205.44,13.036   C349.55,123.364,355.387,215.343,415.717,268.473z"/>
	<text style="fill:#1B181C; font-family:'FbKidushPro'; font-size:14.00px;" dominant-baseline="central" dy="-0.6582em" alignment-baseline="middle">
		<textPath xlink:href="#SVGID_x5F_00000024698805075486680010000014809996075452820670_x5F_" text-anchor="middle" startOffset="50%" dominant-baseline="central" alignment-baseline="middle">
וזאת התורה אשר שם משה לפני בני ישראל	</textPath>
	</text>
</g>
<g>
	<path id="SVGID_x5F_00000179634612759698568120000001554275394584327832_x5F_" transform="rotate(234.58 175.749 159.811)" style="fill:none;" d="M69.518,82.543   c42.464-59.036,124.747-72.471,183.785-30.007C312.338,95,325.773,177.284,283.31,236.32s-124.746,72.469-183.782,30.006   C40.49,223.861,27.054,141.579,69.518,82.543z"/>
	<text style="fill:#1B181C; font-family:'FbKidushPro'; font-size:14.00px;" dominant-baseline="central" dy="-0.66em" alignment-baseline="middle">
		<textPath xlink:href="#SVGID_x5F_00000179634612759698568120000001554275394584327832_x5F_" text-anchor="middle" startOffset="50%" dominant-baseline="central" alignment-baseline="middle">
וענתה השירה הזאת לפניו לעד כי לא תשכח מפי זרעו	</textPath>
	</text>
</g>
<g>
	<path id="SVGID_x5F_00000023959662285160295550000007555530145417977238_x5F_" transform="rotate(164.72 175.749 159.811)" style="fill:none;" d="M138.169,300.317   c77.764,21.026,157.849-24.971,178.875-102.736c21.026-77.763-24.968-157.85-102.732-178.876   C136.548-2.321,56.461,43.676,35.435,121.439C14.409,199.205,60.405,279.291,138.169,300.317z"/>
	<text style="fill:#1B181C; font-family:'FbKidushPro'; font-size:14.00px;" dominant-baseline="central" dy="-0.7617em" alignment-baseline="middle">
		<textPath xlink:href="#SVGID_x5F_00000023959662285160295550000007555530145417977238_x5F_" text-anchor="middle" startOffset="50%" dominant-baseline="central" alignment-baseline="middle">
כי הם חיינו ואורך ימינו ובהם נהגה יומם ולילה	</textPath>
	</text>
</g>
<g>
	<path id="SVGID_x5F_00000041282854740477390000000005469592604194828455_x5F_" transform="rotate(180.51 511.474 478.866)" style="fill:none;" d="M510.288,346.727   c72.969-0.655,132.655,57.969,133.31,130.937c0.655,72.971-57.97,132.655-130.939,133.31   c-72.97,0.655-132.654-57.969-133.308-130.939C378.697,407.067,437.318,347.382,510.288,346.727z"/>
	<text style="fill:#1B181C; font-family:'FbKidushPro'; font-size:14.00px;" dominant-baseline="central" dy="-0.636em" alignment-baseline="middle">
		<textPath xlink:href="#SVGID_x5F_00000041282854740477390000000005469592604194828455_x5F_" text-anchor="middle" startOffset="50%" dominant-baseline="central" alignment-baseline="middle">
ועתה כתבו לכם את השירה הזאת ולמדה את בני ישראל	</textPath>
	</text>
</g>
<g>
	<path id="SVGID_x5F_00000045602892787318786690000016729071528388247442_x5F_" transform="rotate(1.83 511.474 478.866)" style="fill:none;" d="M506.822,332.956   c-80.576,2.569-143.811,69.971-141.242,150.547c2.569,80.575,69.969,143.811,150.545,141.242   c80.574-2.568,143.813-69.969,141.244-150.545C654.8,393.625,587.396,330.387,506.822,332.956z"/>
	<text style="fill:#1B181C; font-family:'FbKidushPro'; font-size:14.00px;" dominant-baseline="central" dy="-0.7367em" alignment-baseline="middle">
		<textPath xlink:href="#SVGID_x5F_00000045602892787318786690000016729071528388247442_x5F_" text-anchor="middle" startOffset="50%" dominant-baseline="central" alignment-baseline="middle">
ארך ימים בימינה בשמאלה עשר וכבוד	</textPath>
	</text>
</g>
<g>
	<path id="SVGID_x5F_00000129206868123354965960000004562879689846919606_x5F_" transform="rotate(201.48 175.749 478.866)" style="fill:none;" d="M127.259,356.207   c67.44-26.599,143.677,6.509,170.276,73.949c26.6,67.441-6.511,143.676-73.951,170.275c-67.441,26.6-143.675-6.509-170.274-73.95   C26.71,459.041,59.817,382.806,127.259,356.207z"/>
	<text style="fill:#1B181C; font-family:'FbKidushPro'; font-size:14.00px;" dominant-baseline="central" dy="-0.8064em" alignment-baseline="middle">
		<textPath xlink:href="#SVGID_x5F_00000129206868123354965960000004562879689846919606_x5F_" text-anchor="middle" startOffset="50%" dominant-baseline="central" alignment-baseline="middle">
טוב לי תורת פיך מאלפי זהב וכסף	</textPath>
	</text>
</g>
<g>
	<path id="SVGID_x5F_00000105407680189380640600000003537195384550404751_x5F_" transform="rotate(178.59 175.749 478.866)" style="fill:none;" d="M171.502,623.703   c80.294,2.166,147.139-61.169,149.304-141.462c2.166-80.293-61.167-147.14-141.461-149.305   c-80.292-2.166-147.14,61.168-149.306,141.462C27.873,554.69,91.21,621.537,171.502,623.703z"/>
	<text style="fill:#1B181C; font-family:'FbKidushPro'; font-size:14.00px;" dominant-baseline="central" dy="-0.7366em" alignment-baseline="middle">
		<textPath xlink:href="#SVGID_x5F_00000105407680189380640600000003537195384550404751_x5F_" text-anchor="middle" startOffset="50%" dominant-baseline="central" alignment-baseline="middle">
מה אהבתי תורתך כל היום היא שיחתי	</textPath>
	</text>
</g></svg>