<?xml version="1.0" encoding="utf-8"?>
<!-- Generator: Adobe Illustrator 25.4.1, SVG Export Plug-In . SVG Version: 6.00 Build 0)  -->
<svg version="1.1" id="Layer_1" xmlns="http://www.w3.org/2000/svg" xmlns:xlink="http://www.w3.org/1999/xlink" x="0px" y="0px" viewBox="0 0 719.442 749.472" style="enable-background:new 0 0 719.442 749.472;" xml:space="preserve">
<ellipse transform="matrix(0.7071 -0.7071 0.7071 0.7071 -79.0683 202.0817)" style="fill:none;stroke:#000000;stroke-miterlimit:10;" cx="204.4" cy="196.485" rx="148.819" ry="148.819"/>
<ellipse transform="matrix(0.2898 -0.9571 0.9571 0.2898 -42.8858 335.1762)" style="fill:none;stroke:#000000;stroke-miterlimit:10;" cx="204.4" cy="196.485" rx="130.394" ry="130.394"/>

<g>
	<rect x="55.582" y="47.666" width="2.834" height="2.834" style="fill:#241F1F;"/>
	<rect x="350.385" y="47.666" width="2.834" height="2.834" style="fill:#241F1F;"/>
	<rect x="55.582" y="342.470" width="2.834" height="2.834" style="fill:#241F1F;"/>
	<rect x="350.385" y="342.470" width="2.834" height="2.834" style="fill:#241F1F;"/>
</g>

<ellipse transform="matrix(0.7071 -0.7071 0.7071 0.7071 16.6493 433.1645)" style="fill:none;stroke:#000000;stroke-miterlimit:10;" cx="531.2" cy="196.485" rx="148.819" ry="148.819"/>
<ellipse transform="matrix(0.2898 -0.9571 0.9571 0.2898 189.2132 647.9543)" style="fill:none;stroke:#000000;stroke-miterlimit:10;" cx="531.201" cy="196.485" rx="130.394" ry="130.394"/>

<g>
	<rect x="382.382" y="47.666" width="2.834" height="2.834" style="fill:#241F1F;"/>
	<rect x="677.185" y="47.666" width="2.834" height="2.834" style="fill:#241F1F;"/>
	<rect x="382.382" y="342.470" width="2.834" height="2.834" style="fill:#241F1F;"/>
	<rect x="677.185" y="342.470" width="2.834" height="2.834" style="fill:#241F1F;"/>
</g>

<ellipse transform="matrix(0.7071 -0.7071 0.7071 0.7071 -336.5441 308.7316)" style="fill:none;stroke:#000000;stroke-miterlimit:10;" cx="204.4" cy="560.61" rx="148.819" ry="148.819"/>
<ellipse transform="matrix(0.2898 -0.9571 0.9571 0.2898 -391.3877 593.7842)" style="fill:none;stroke:#000000;stroke-miterlimit:10;" cx="204.4" cy="560.61" rx="130.394" ry="130.394"/>

<g>
	<rect x="55.582" y="411.792" width="2.834" height="2.834" style="fill:#241F1F;"/>
	<rect x="350.385" y="411.792" width="2.834" height="2.834" style="fill:#241F1F;"/>
	<rect x="55.582" y="706.595" width="2.834" height="2.834" style="fill:#241F1F;"/>
	<rect x="350.385" y="706.595" width="2.834" height="2.834" style="fill:#241F1F;"/>
</g>

<ellipse transform="matrix(0.7071 -0.7071 0.7071 0.7071 -240.8265 539.8145)" style="fill:none;stroke:#000000;stroke-miterlimit:10;" cx="531.2" cy="560.61" rx="148.819" ry="148.819"/>
<ellipse transform="matrix(0.2898 -0.9571 0.9571 0.2898 -159.2888 906.5624)" style="fill:none;stroke:#000000;stroke-miterlimit:10;" cx="531.201" cy="560.61" rx="130.394" ry="130.394"/>

<g>
	<rect x="382.382" y="411.792" width="2.834" height="2.834" style="fill:#241F1F;"/>
	<rect x="677.185" y="411.792" width="2.834" height="2.834" style="fill:#241F1F;"/>
	<rect x="382.382" y="706.595" width="2.834" height="2.834" style="fill:#241F1F;"/>
	<rect x="677.185" y="706.595" width="2.834" height="2.834" style="fill:#241F1F;"/>
</g>

<g>
	<text transform="matrix(1 0 0 1 499.3636 208.8695)" style="fill:#241F1F; font-family:'FbKidushPro'; font-size:15.6369px;">
ימין למעלה</text>
</g>
<g>
	<text transform="matrix(1 0 0 1 166.8654 208.8695)" style="fill:#241F1F; font-family:'FbKidushPro'; font-size:15.6369px;">
שמאל למעלה</text>
</g>
<g>
	<text transform="matrix(1 0 0 1 510.5053 575.5438)" style="fill:#241F1F; font-family:'FbKidushPro'; font-size:15.6369px;">
ימין למטה</text>
</g>
<g>
	<text transform="matrix(1 0 0 1 166.1534 576.657)" style="fill:#241F1F; font-family:'FbKidushPro'; font-size:15.6369px;">
שמאל למטה</text>
</g>
<g>
	<path id="SVGID_x5F_1_x5F_" style="fill:none;" transform="rotate(179.67 531.97 196.67)" d="M531.966,63.233c73.697,0,133.441,59.744,133.441,133.443   c0,73.696-59.745,133.441-133.441,133.441s-133.439-59.745-133.439-133.441C398.527,122.978,458.27,63.233,531.966,63.233z"/>
	<text style="fill:#241F1F; font-family:'FbKidushPro'; font-size:16.00px;" dominant-baseline="central" dy="-0.6082em" alignment-baseline="middle">	<textPath xlink:href="#SVGID_x5F_1_x5F_" text-anchor="middle" startOffset="50%" dominant-baseline="central" alignment-baseline="middle">
שלום רב לאוהבי תורתך ואין למו מכשול	</textPath>
</text>
</g>
<g>
	<path id="SVGID_x5F_00000168831164757419425690000006097742017277717927_x5F_" transform="rotate(137.92 531.78 197.09)" style="fill:none;" d="M432.581,306.119   c60.212,54.788,153.438,50.389,208.227-9.824c54.787-60.212,50.392-153.438-9.82-208.225s-153.44-50.39-208.227,9.821   C367.971,158.103,372.369,251.331,432.581,306.119z"/>
	<text style="fill:#241F1F; font-family:'FbKidushPro'; font-size:16.00px;" dominant-baseline="central" dy="-0.6479em" alignment-baseline="middle">	<textPath xlink:href="#SVGID_x5F_00000168831164757419425690000006097742017277717927_x5F_" text-anchor="middle" startOffset="50%" dominant-baseline="central" alignment-baseline="middle">
וזאת התורה אשר שם משה לפני בני ישראל	</textPath>
</text>
</g>
<g>
	<path id="SVGID_x5F_00000005962328611852215650000016212559350036075685_x5F_" transform="rotate(232.11 203.88 196.23)" style="fill:none;" d="M99.675,114.49   c45.144-57.55,128.396-67.608,185.947-22.464c57.55,45.144,67.608,128.396,22.464,185.946s-128.395,67.607-185.945,22.463   C64.59,255.291,54.531,172.04,99.675,114.49z"/>
	<text style="fill:#241F1F; font-family:'FbKidushPro'; font-size:16.00px;" dominant-baseline="central" dy="-0.5965em" alignment-baseline="middle">	<textPath xlink:href="#SVGID_x5F_00000005962328611852215650000016212559350036075685_x5F_" text-anchor="middle" startOffset="50%" dominant-baseline="central" alignment-baseline="middle">
וענתה השירה הזאת לפניו לעד כי לא תשכח מפי זרעו	</textPath>
</text>
</g>
<g>
	<path id="SVGID_x5F_00000080177400536822231440000003768013868402059657_x5F_" transform="rotate(169.66 203.71 196.31)" style="fill:none;" d="M178.063,340.762   c79.777,14.163,155.929-39.03,170.092-118.808c14.162-79.776-39.027-155.93-118.804-170.093   C149.574,37.698,73.42,90.89,59.257,170.666C45.094,250.445,98.286,326.599,178.063,340.762z"/>
		<text style="fill:#241F1F; font-family:'FbKidushPro'; font-size:16.00px;" dominant-baseline="central" dy="-0.6723em" alignment-baseline="middle">	<textPath xlink:href="#SVGID_x5F_00000080177400536822231440000003768013868402059657_x5F_" text-anchor="middle" startOffset="50%" dominant-baseline="central" alignment-baseline="middle">
כי הם חיינו ואורך ימינו ובהם נהגה יומם ולילה	</textPath>
</text>
</g>
<g>
	<path id="SVGID_x5F_00000090265540601504830140000018024805749586240910_x5F_" transform="rotate(177.25 530.41 559.82)" style="fill:none;" d="M537.571,427.148   c73.27,3.957,129.462,66.562,125.505,139.832c-3.957,73.271-66.564,129.462-139.834,125.505   c-73.271-3.957-129.46-66.562-125.503-139.834C401.695,479.382,464.299,423.191,537.571,427.148z"/>
	<text style="fill:#241F1F; font-family:'FbKidushPro'; font-size:16.00px;" dominant-baseline="central" dy="-0.5456em" alignment-baseline="middle">	<textPath xlink:href="#SVGID_x5F_00000090265540601504830140000018024805749586240910_x5F_" text-anchor="middle" startOffset="50%" dominant-baseline="central" alignment-baseline="middle">
ועתה כתבו לכם את השירה הזאת ולמדה את בני ישראל	</textPath>
</text>
</g>
<g>
	<path id="SVGID_x5F_00000143585552100045085610000009367293205442532774_x5F_" transform="rotate(1.86 530.41 559.82)" style="fill:none;" d="M524.845,413.144   c-81.006,3.071-144.182,71.229-141.111,152.234c3.071,81.005,71.227,144.182,152.233,141.111   c81.004-3.07,144.184-71.227,141.113-152.233C674.008,473.252,605.849,410.073,524.845,413.144z"/>
	<text style="fill:#241F1F; font-family:'FbKidushPro'; font-size:16.00px;" dominant-baseline="central" dy="-0.6252em" alignment-baseline="middle">	<textPath xlink:href="#SVGID_x5F_00000143585552100045085610000009367293205442532774_x5F_" text-anchor="middle" startOffset="50%" dominant-baseline="central" alignment-baseline="middle">
ארך ימים בימינה בשמאלה עשר וכבוד	</textPath>
</text>
</g>
<g>
<path id="SVGID_x5F_00000042703752264212439080000003524205480974220960_x5F_" transform="rotate(179.87 204.71 559.61)" style="fill:none;" d="M204.705,426.508   c73.509,0,133.103,59.592,133.103,133.102c0,73.511-59.594,133.102-133.103,133.102c-73.511,0-133.102-59.592-133.102-133.102   C71.603,486.101,131.194,426.508,204.705,426.508z"/>
	<text style="fill:#241F1F; font-family:'FbKidushPro'; font-size:16.00px;" dominant-baseline="central" dy="-0.5739em" alignment-baseline="middle">	<textPath xlink:href="#SVGID_x5F_00000042703752264212439080000003524205480974220960_x5F_" text-anchor="middle" startOffset="50%" dominant-baseline="central" alignment-baseline="middle">
טוב לי תורת פיך מאלפי זהב וכסף	</textPath>
</text>
</g>
<g>
	<path id="SVGID_x5F_00000156589670922090296920000005660840561393306300_x5F_" transform="rotate(180.67 204.71 560.61)" style="fill:none;" d="M206.128,708.075   c81.442-0.785,146.826-67.443,146.041-148.884c-0.785-81.442-67.441-146.827-148.883-146.042   c-81.44,0.784-146.828,67.442-146.043,148.884C58.028,643.474,124.688,708.86,206.128,708.075z"/>
	<text style="fill:#241F1F; font-family:'FbKidushPro'; font-size:16.00px;" dominant-baseline="central" dy="-0.7207em" alignment-baseline="middle">	<textPath xlink:href="#SVGID_x5F_00000156589670922090296920000005660840561393306300_x5F_" text-anchor="middle" startOffset="50%" dominant-baseline="central" alignment-baseline="middle">
מה אהבתי תורתך כל היום היא שיחתי	</textPath>
</text>
</g>
</svg>