<?xml version="1.0" encoding="utf-8"?>
<!-- Generator: Adobe Illustrator 25.4.1, SVG Export Plug-In . SVG Version: 6.00 Build 0)  -->
<svg version="1.1" id="Layer_1" xmlns="http://www.w3.org/2000/svg" xmlns:xlink="http://www.w3.org/1999/xlink" x="0px" y="0px" viewBox="0 0 903.363 841.89" style="enable-background:new 0 0 903.363 841.89;" xml:space="preserve">
<g>
	
		<ellipse transform="matrix(0.0925 -0.9957 0.9957 0.0925 339.4309 857.5921)" style="fill:none;stroke:#000000;stroke-miterlimit:10;" cx="640.211" cy="242.576" rx="168.662" ry="168.661"/>
	
		<ellipse transform="matrix(0.025 -0.9997 0.9997 0.025 381.7212 876.5297)" style="fill:none;stroke:#000000;stroke-miterlimit:10;" cx="640.212" cy="242.576" rx="147.402" ry="147.401"/>
</g>
<g>
	
		<ellipse transform="matrix(0.7071 -0.7071 0.7071 0.7071 -87.1325 274.7958)" style="fill:none;stroke:#000000;stroke-miterlimit:10;" cx="288.142" cy="242.576" rx="147.402" ry="147.402"/>
	
		<ellipse transform="matrix(0.1659 -0.9862 0.9862 0.1659 1.1357 486.4946)" style="fill:none;stroke:#000000;stroke-miterlimit:10;" cx="288.141" cy="242.576" rx="168.662" ry="168.661"/>
</g>
<g>
	
		<ellipse transform="matrix(0.7071 -0.7071 0.7071 0.7071 -249.3359 633.647)" style="fill:none;stroke:#000000;stroke-miterlimit:10;" cx="640.212" cy="617.799" rx="168.662" ry="168.661"/>
	
		<ellipse transform="matrix(0.7071 -0.7071 0.7071 0.7071 -249.3359 633.647)" style="fill:none;stroke:#000000;stroke-miterlimit:10;" cx="640.212" cy="617.799" rx="147.402" ry="147.401"/>
</g>
<g>
	
		<ellipse transform="matrix(0.7071 -0.7071 0.7071 0.7071 -352.4548 384.6959)" style="fill:none;stroke:#000000;stroke-miterlimit:10;" cx="288.142" cy="617.799" rx="147.402" ry="147.402"/>
	
		<ellipse transform="matrix(0.1891 -0.982 0.982 0.1891 -372.9999 783.9102)" style="fill:none;stroke:#000000;stroke-miterlimit:10;" cx="288.141" cy="617.799" rx="168.662" ry="168.661"/>
</g>
<g>
	<rect x="119.48" y="73.914" width="2.835" height="2.835"/>
	<rect x="453.968" y="73.914" width="2.835" height="2.835"/>
	<rect x="119.48" y="408.403" width="2.835" height="2.835"/>
	<rect x="453.968" y="408.403" width="2.835" height="2.835"/>
</g>
<g>
	<rect x="471.551" y="73.914" width="2.835" height="2.835"/>
	<rect x="806.039" y="73.914" width="2.835" height="2.835"/>
	<rect x="471.551" y="408.403" width="2.835" height="2.835"/>
	<rect x="806.039" y="408.403" width="2.835" height="2.835"/>
</g>
<g>
	<rect x="471.551" y="449.137" width="2.835" height="2.835"/>
	<rect x="806.039" y="449.137" width="2.835" height="2.835"/>
	<rect x="471.551" y="783.626" width="2.835" height="2.835"/>
	<rect x="806.039" y="783.626" width="2.835" height="2.835"/>
</g>
<g>
	<rect x="119.48" y="449.137" width="2.835" height="2.835"/>
	<rect x="453.968" y="449.137" width="2.835" height="2.835"/>
	<rect x="119.48" y="783.626" width="2.835" height="2.835"/>
	<rect x="453.968" y="783.626" width="2.835" height="2.835"/>
</g>
<g>
	<text transform="matrix(1 0 0 1 608.6093 257.4905)" style="fill:#241F1F; font-family:'FbKidushPro'; font-size:15.6369px;">
ימין למעלה</text>
</g>
<g>
	<text transform="matrix(1 0 0 1 250.6783 257.4905)" style="fill:#241F1F; font-family:'FbKidushPro'; font-size:15.6369px;">
שמאל למעלה</text>
</g>
<g>
	<text transform="matrix(1 0 0 1 611.475 625.2781)" style="fill:#241F1F; font-family:'FbKidushPro'; font-size:15.6369px;">
ימין למטה</text>
</g>
<g>
	<text transform="matrix(1 0 0 1 253.5445 625.2781)" style="fill:#241F1F; font-family:'FbKidushPro'; font-size:15.6369px;">
שמאל למטה</text>
</g>
<g>
	<path id="SVGID_x5F_1_x5F_" style="fill:none;" transform="rotate(180 640.15 242.33)" d="M640.149,91.123c83.505,0,151.201,67.696,151.201,151.203   c0,83.505-67.696,151.201-151.201,151.201S488.95,325.831,488.95,242.327C488.95,158.819,556.644,91.123,640.149,91.123z"/>
	<text style="fill:#241F1F; font-family:'FbKidushPro'; font-size:16.00px;" dominant-baseline="central" dy="-0.6325em" alignment-baseline="middle">	<textPath xlink:href="#SVGID_x5F_1_x5F_" text-anchor="middle" startOffset="50%" dominant-baseline="central" alignment-baseline="middle">
שלום רב לאוהבי תורתך ואין למו מכשול	</textPath>
</text>
</g>
<g>
	<path id="SVGID_x5F_00000016048663960336407710000001613323600433340038_x5F_" transform="rotate(137.85 639.94 242.8)" style="fill:none;" d="M528.051,366.802   c68.484,61.795,174.096,56.371,235.892-12.114c61.795-68.483,56.374-174.096-12.109-235.891s-174.098-56.373-235.892,12.11   C454.146,199.393,459.568,305.007,528.051,366.802z"/>
	<text style="fill:#241F1F; font-family:'FbKidushPro'; font-size:16.00px;" dominant-baseline="central" dy="-0.7158em" alignment-baseline="middle">	<textPath xlink:href="#SVGID_x5F_00000016048663960336407710000001613323600433340038_x5F_" text-anchor="middle" startOffset="50%" dominant-baseline="central" alignment-baseline="middle">
וזאת התורה אשר שם משה לפני בני ישראל	</textPath>
</text>
</g>
<g>
<path id="SVGID_x5F_00000124137100998625359980000007795365934399074695_x5F_" transform="rotate(76.18 287.99 241.77)" style="fill:none;" d="M433.937,277.84   c-19.918,80.604-101.409,129.801-182.015,109.882c-80.604-19.918-129.801-101.409-109.882-182.013S243.448,75.91,324.052,95.828   C404.657,115.747,453.855,197.236,433.937,277.84z"/>
	<text style="fill:#241F1F; font-family:'FbKidushPro'; font-size:16.00px;" dominant-baseline="central" dy="-0.5947em" alignment-baseline="middle">	<textPath xlink:href="#SVGID_x5F_00000124137100998625359980000007795365934399074695_x5F_" text-anchor="middle" startOffset="50%" dominant-baseline="central" alignment-baseline="middle">
וענתה השירה הזאת לפניו לעד כי לא תשכח מפי זרעו	</textPath>
</text>
</g>
<g>
	<path id="SVGID_x5F_00000037670680275449101840000004082350086562637755_x5F_" transform="rotate(165.11 287.79 241.87)" style="fill:none;" d="M245.338,402.902   c88.935,23.445,180.037-29.648,203.482-118.585c23.445-88.935-29.645-180.039-118.58-203.483S150.2,110.481,126.756,199.416   C103.311,288.353,156.403,379.457,245.338,402.902z"/>
	<text style="fill:#241F1F; font-family:'FbKidushPro'; font-size:16.00px;" dominant-baseline="central" dy="-0.7251em" alignment-baseline="middle">	<textPath xlink:href="#SVGID_x5F_00000037670680275449101840000004082350086562637755_x5F_" text-anchor="middle" startOffset="50%" dominant-baseline="central" alignment-baseline="middle">
כי הם חיינו ואורך ימינו ובהם נהגה יומם ולילה	</textPath>
</text>
</g>
<g>
	<path id="SVGID_x5F_00000040541212870157213700000012913196782526494097_x5F_" transform="rotate(180 640.22 616.89)" style="fill:none;" d="M640.223,466.063   c83.3,0,150.831,67.529,150.831,150.829c0,83.302-67.531,150.831-150.831,150.831c-83.302,0-150.829-67.529-150.829-150.831   C489.394,533.592,556.921,466.063,640.223,466.063z"/>
	<text style="fill:#241F1F; font-family:'FbKidushPro'; font-size:16.00px;" dominant-baseline="central" dy="-0.5559em" alignment-baseline="middle">	<textPath xlink:href="#SVGID_x5F_00000040541212870157213700000012913196782526494097_x5F_" text-anchor="middle" startOffset="50%" dominant-baseline="central" alignment-baseline="middle">
ועתה כתבו לכם את השירה הזאת ולמדה את בני ישראל	</textPath>
</text>
</g>
<g>
	<path id="SVGID_x5F_00000154416554932860381440000009769138334596095395_x5F_" transform="rotate(2.72 640.22 616.89)" style="fill:none;" d="M632.363,450.45   c-91.925,4.34-162.924,82.378-158.583,174.303c4.34,91.924,82.376,162.924,174.301,158.583   c91.923-4.339,162.926-82.376,158.586-174.301C802.326,517.112,724.286,446.11,632.363,450.45z"/>
	<text style="fill:#241F1F; font-family:'FbKidushPro'; font-size:16.00px;" dominant-baseline="central" dy="-0.7152em" alignment-baseline="middle">	<textPath xlink:href="#SVGID_x5F_00000154416554932860381440000009769138334596095395_x5F_" text-anchor="middle" startOffset="50%" dominant-baseline="central" alignment-baseline="middle">
ארך ימים בימינה בשמאלה עשר וכבוד	</textPath>
</text>
</g>
<g>
	<path id="SVGID_x5F_00000039126066426234479540000005266286813829441156_x5F_" transform="rotate(175.86 288.5 617.54)" style="fill:none;" d="M299.001,467.958   c82.609,5.798,144.881,77.467,139.083,160.077c-5.798,82.611-77.469,144.879-160.078,139.082   c-82.611-5.798-144.878-77.466-139.081-160.077C144.722,524.43,216.39,462.161,299.001,467.958z"/>
	<text style="fill:#241F1F; font-family:'FbKidushPro'; font-size:16.00px;" dominant-baseline="central" dy="-0.7133em" alignment-baseline="middle">	<textPath xlink:href="#SVGID_x5F_00000039126066426234479540000005266286813829441156_x5F_" text-anchor="middle" startOffset="50%" dominant-baseline="central" alignment-baseline="middle">
טוב לי תורת פיך מאלפי זהב וכסף</textPath>
</text>
</g>
<g>
	<path id="SVGID_x5F_00000147198868326426127450000006565043315060772241_x5F_" transform="rotate(180.13 288.51 617.54)" style="fill:none;" d="M288.505,783.672   c91.754,0,166.132-74.381,166.132-166.133c0-91.753-74.379-166.133-166.132-166.133c-91.751-0.001-166.134,74.38-166.134,166.133   C122.371,709.291,196.754,783.672,288.505,783.672z"/>
	<text style="fill:#241F1F; font-family:'FbKidushPro'; font-size:16.00px;" dominant-baseline="central" dy="-0.7198em" alignment-baseline="middle">	<textPath xlink:href="#SVGID_x5F_00000147198868326426127450000006565043315060772241_x5F_" text-anchor="middle" startOffset="50%" dominant-baseline="central" alignment-baseline="middle">
מה אהבתי תורתך כל היום היא שיחתי	</textPath>
</text>
</g>
</svg>