<?xml version="1.0" encoding="utf-8"?>
<!-- Generator: Adobe Illustrator 25.4.1, SVG Export Plug-In . SVG Version: 6.00 Build 0)  -->
<svg version="1.1" id="Layer_1" xmlns="http://www.w3.org/2000/svg" xmlns:xlink="http://www.w3.org/1999/xlink" x="0px" y="0px" viewBox="0 0 805.96 797.119" style="enable-background:new 0 0 805.96 797.119;" xml:space="preserve">
<circle style="fill:#FFFFFF;stroke:#000000;stroke-width:1.0451;stroke-miterlimit:10;" cx="220.832" cy="212.568" r="175.747"/>
<ellipse transform="matrix(0.7071 -0.7071 0.7071 0.7071 -85.6278 218.412)" style="fill:#FFFFFF;stroke:#000000;stroke-width:1.0412;stroke-miterlimit:10;" cx="220.833" cy="212.568" rx="155.906" ry="155.906"/>

<g>
	<!-- קבוצה 1 - שמאל למעלה -->
	<rect x="393.748" y="36.821" width="2.834" height="2.834" style="fill:#1B181C;"/>
	<rect x="45.084" y="36.821" width="2.834" height="2.834" style="fill:#1B181C;"/>
	<rect x="393.748" y="385.481" width="2.834" height="2.834" style="fill:#1B181C;"/>
	<rect x="45.084" y="385.481" width="2.834" height="2.834" style="fill:#1B181C;"/>
</g>

<g>
	<text transform="matrix(1 0 0 1 183.3699 216.1123)" style="fill:#1B181C; font-family:'FbKidushPro'; font-size:15.6369px;">
שמאל למעלה</text>
</g>
<circle style="fill:#FFFFFF;stroke:#000000;stroke-width:1.0451;stroke-miterlimit:10;" cx="596.453" cy="212.568" r="175.747"/>
<ellipse transform="matrix(0.7071 -0.7071 0.7071 0.7071 24.389 484.0159)" style="fill:#FFFFFF;stroke:#000000;stroke-width:1.0412;stroke-miterlimit:10;" cx="596.453" cy="212.568" rx="155.906" ry="155.906"/>

<g>
	<!-- קבוצה 2 - ימין למעלה -->
	<rect x="769.369" y="36.821" width="2.834" height="2.834" style="fill:#1B181C;"/>
	<rect x="420.704" y="36.821" width="2.834" height="2.834" style="fill:#1B181C;"/>
	<rect x="769.369" y="385.481" width="2.834" height="2.834" style="fill:#1B181C;"/>
	<rect x="420.704" y="385.481" width="2.834" height="2.834" style="fill:#1B181C;"/>
</g>

<g>
	<text transform="matrix(1 0 0 1 564.8499 216.1123)" style="fill:#1B181C; font-family:'FbKidushPro'; font-size:15.6369px;">
ימין למעלה</text>
</g>
<circle style="fill:#FFFFFF;stroke:#000000;stroke-width:1.0451;stroke-miterlimit:10;" cx="220.832" cy="590.115" r="175.747"/>
<ellipse transform="matrix(0.7071 -0.7071 0.7071 0.7071 -352.5936 328.9928)" style="fill:#FFFFFF;stroke:#000000;stroke-width:1.0412;stroke-miterlimit:10;" cx="220.833" cy="590.115" rx="155.906" ry="155.906"/>

<g>
	<!-- קבוצה 3 - שמאל למטה -->
	<rect x="393.748" y="414.368" width="2.834" height="2.834" style="fill:#1B181C;"/>
	<rect x="45.084" y="414.368" width="2.834" height="2.834" style="fill:#1B181C;"/>
	<rect x="393.748" y="763.028" width="2.834" height="2.834" style="fill:#1B181C;"/>
	<rect x="45.084" y="763.028" width="2.834" height="2.834" style="fill:#1B181C;"/>
</g>

<g>
	<text transform="matrix(1 0 0 1 186.2351 593.659)" style="fill:#1B181C; font-family:'FbKidushPro'; font-size:15.6369px;">
שמאל למטה</text>
</g>
<circle style="fill:#FFFFFF;stroke:#000000;stroke-width:1.0451;stroke-miterlimit:10;" cx="596.453" cy="590.115" r="175.747"/>
<ellipse transform="matrix(0.7071 -0.7071 0.7071 0.7071 -242.5768 594.5967)" style="fill:#FFFFFF;stroke:#000000;stroke-width:1.0412;stroke-miterlimit:10;" cx="596.453" cy="590.115" rx="155.906" ry="155.906"/>

<g>
	<!-- קבוצה 4 - ימין למטה -->
	<rect x="769.369" y="414.368" width="2.834" height="2.834" style="fill:#1B181C;"/>
	<rect x="420.704" y="414.368" width="2.834" height="2.834" style="fill:#1B181C;"/>
	<rect x="769.369" y="763.028" width="2.834" height="2.834" style="fill:#1B181C;"/>
	<rect x="420.704" y="763.028" width="2.834" height="2.834" style="fill:#1B181C;"/>
</g>

<g>
	<text transform="matrix(1 0 0 1 567.7151 593.659)" style="fill:#1B181C; font-family:'FbKidushPro'; font-size:15.6369px;">
ימין למטה</text>
</g>
<g>
	<path id="SVGID_x5F_1_x5F_" style="fill:none;" d="M565.927,366.864c-85.474-16.995-140.988-100.065-123.992-185.54   C458.93,95.851,542,40.337,627.473,57.333s140.985,100.064,123.99,185.537C734.468,328.345,651.4,383.86,565.927,366.864z" transform="rotate(348.67 596.7 212.1)"/>
	<text style="fill:#1B181C; font-family:'FbKidushPro'; font-size:16.00px;" dominant-baseline="central" dy="-0.6929em" alignment-baseline="middle">	<textPath xlink:href="#SVGID_x5F_1_x5F_" startOffset="50%" text-anchor="middle" dominant-baseline="central" alignment-baseline="middle">
שלום רב לאוהבי תורתך ואין למו מכשול</textPath>
</text>
</g>
<g>
	<path id="SVGID_x5F_00000165936934129703318750000011333406317217014954_x5F_" transform="rotate(136.44 596.48 212.59)" style="fill:none;" d="M476.353,338.892   c69.752,66.344,180.08,63.58,246.426-6.173c66.344-69.752,63.583-180.08-6.168-246.424s-180.082-63.582-246.426,6.17   C403.839,162.218,406.601,272.548,476.353,338.892z"/>
	<text style="fill:#1B181C; font-family:'FbKidushPro'; font-size:16.00px;" dominant-baseline="central" dy="-0.665em" alignment-baseline="middle">	<textPath xlink:href="#SVGID_x5F_00000165936934129703318750000011333406317217014954_x5F_" startOffset="50%" text-anchor="middle" dominant-baseline="central" alignment-baseline="middle">
וזאת התורה אשר שם משה לפני בני ישראל</textPath>
</text>
</g>
<g>
	<path id="SVGID_x5F_00000079464640332177669850000000213566668862780087_x5F_" style="fill:none;" d="M232.901,369.743   c-86.762,6.455-162.331-58.648-168.786-145.412C57.661,137.569,122.764,62,209.526,55.546   c86.762-6.455,162.328,58.649,168.783,145.41C384.764,287.719,319.663,363.288,232.901,369.743z" transform="rotate(4.12 221.21 212.64)"/>
	<text style="fill:#1B181C; font-family:'FbKidushPro'; font-size:16.00px;" dominant-baseline="central" dy="-0.6827em" alignment-baseline="middle">	<textPath xlink:href="#SVGID_x5F_00000079464640332177669850000000213566668862780087_x5F_" startOffset="50%" text-anchor="middle" dominant-baseline="central" alignment-baseline="middle">
וענתה השירה הזאת לפניו לעד כי לא תשכח מפי זרעו</textPath>
</text>
</g>
<g>
	<path id="SVGID_x5F_00000080202785358476257800000001865000662950651057_x5F_" transform="rotate(163.89 221 212.74)" style="fill:none;" d="M172.43,380.349   c92.566,26.826,189.352-26.468,216.179-119.036c26.826-92.565-26.465-189.354-119.031-216.18S80.223,71.6,53.397,164.166   C26.57,256.733,79.864,353.522,172.43,380.349z"/>
	<text style="fill:#1B181C; font-family:'FbKidushPro'; font-size:16.00px;" dominant-baseline="central" dy="-0.7804em" alignment-baseline="middle">	<textPath xlink:href="#SVGID_x5F_00000080202785358476257800000001865000662950651057_x5F_" startOffset="50%" text-anchor="middle" dominant-baseline="central" alignment-baseline="middle">
כי הם חיינו ואורך ימינו ובהם נהגה יומם ולילה</textPath>
</text>
</g>
<g>
	<path id="SVGID_x5F_00000123442534476769064210000017397398497374543545_x5F_" transform="rotate(150.64 596.69 589.81)" style="fill:none;" d="M673.969,451.946   c76.139,42.681,103.265,139.007,60.584,215.146c-42.682,76.141-139.009,103.264-215.148,60.583   c-76.141-42.682-103.263-139.006-60.581-215.147C501.505,436.388,597.828,409.264,673.969,451.946z"/>
	<text style="fill:#1B181C; font-family:'FbKidushPro'; font-size:16.00px;" dominant-baseline="central" dy="-0.6157em" alignment-baseline="middle">	<textPath xlink:href="#SVGID_x5F_00000123442534476769064210000017397398497374543545_x5F_" startOffset="50%" text-anchor="middle" dominant-baseline="central" alignment-baseline="middle">
ועתה כתבו לכם את השירה הזאת ולמדה את בני ישראל	</textPath>
</text>
</g>
<g>
	<path id="SVGID_x5F_00000074421150343901392120000003215614728656512684_x5F_" transform="rotate(0.66 596.69 589.81)" style="fill:none;" d="M594.923,415.217   c-96.426,0.973-173.803,79.931-172.83,176.357c0.973,96.425,79.928,173.803,176.354,172.83   c96.424-0.972,173.805-79.928,172.832-176.354C770.307,491.625,691.347,414.244,594.923,415.217z"/>
	<text style="fill:#1B181C; font-family:'FbKidushPro'; font-size:16.00px;" dominant-baseline="central" dy="-0.7633em" alignment-baseline="middle">	<textPath xlink:href="#SVGID_x5F_00000074421150343901392120000003215614728656512684_x5F_" startOffset="50%" text-anchor="middle" dominant-baseline="central" alignment-baseline="middle">
ארך ימים בימינה בשמאלה עשר וכבוד	</textPath>
</text>
</g>
<g>
	<path id="SVGID_x5F_00000142867231375776068350000012179585823912240546_x5F_" transform="rotate(7.13 220.59 590.11)" style="fill:none;" d="M239.883,746.401   C153.565,757.057,74.948,695.72,64.292,609.401c-10.656-86.32,50.683-164.934,137.002-175.591   c86.32-10.656,164.933,50.681,175.589,137.001C387.539,657.13,326.204,735.745,239.883,746.401z"/>
	<text style="fill:#1B181C; font-family:'FbKidushPro'; font-size:16.00px;" dominant-baseline="central" dy="-0.7426em" alignment-baseline="middle">	<textPath xlink:href="#SVGID_x5F_00000142867231375776068350000012179585823912240546_x5F_" startOffset="50%" text-anchor="middle" dominant-baseline="central" alignment-baseline="middle">
טוב לי תורת פיך מאלפי זהב וכסף	</textPath>
</text>
</g>
<g>
	<path id="SVGID_x5F_00000103967310810435242120000013532623975593570203_x5F_" transform="rotate(180.61 220.59 590.11)" style="fill:none;" d="M222.671,764.575   c96.357-1.15,173.535-80.195,172.385-176.551c-1.15-96.357-80.193-173.536-176.55-172.386   c-96.355,1.15-173.538,80.194-172.387,176.551C47.268,688.544,126.316,765.725,222.671,764.575z"/>
	<text style="fill:#1B181C; font-family:'FbKidushPro'; font-size:16.00px;" dominant-baseline="central" dy="-0.7698em" alignment-baseline="middle">	<textPath xlink:href="#SVGID_x5F_00000103967310810435242120000013532623975593570203_x5F_" startOffset="50%" text-anchor="middle" dominant-baseline="central" alignment-baseline="middle">
מה אהבתי תורתך כל היום היא שיחתי	</textPath>
</text>
</g>
</svg>