<?xml version="1.0" encoding="utf-8"?>
<!-- Generator: Adobe Illustrator 25.4.1, SVG Export Plug-In . SVG Version: 6.00 Build 0)  -->
<svg version="1.1" id="Default" xmlns="http://www.w3.org/2000/svg" xmlns:xlink="http://www.w3.org/1999/xlink" x="0px" y="0px" viewBox="0 0 588.255 642.807" style="enable-background:new 0 0 588.255 642.807;" xml:space="preserve">
<path style="fill:none;stroke:#000000;stroke-linecap:round;stroke-linejoin:round;" d="M273.551,187.461  c0-14.406-2.718-28.654-8.02-42.049c-5.745-14.512-14.401-27.69-25.437-38.727c-11.037-11.037-24.215-19.694-38.728-25.439  c-13.395-5.303-27.644-8.021-42.051-8.021c-14.406,0-28.654,2.718-42.049,8.02c-14.512,5.745-27.69,14.401-38.727,25.437  c-11.037,11.037-19.694,24.215-25.439,38.728c-5.303,13.395-8.021,27.644-8.021,42.051c0,14.406,2.718,28.654,8.02,42.049  c5.745,14.512,14.401,27.69,25.437,38.727c11.037,11.037,24.215,19.694,38.728,25.439c13.395,5.303,27.644,8.021,42.051,8.021  c14.406,0,28.654-2.718,42.049-8.02c14.512-5.745,27.69-14.401,38.727-25.437c11.037-11.037,19.694-24.215,25.439-38.728  C270.833,216.117,273.551,201.868,273.551,187.461z"/>
<path style="fill:none;stroke:#000000;stroke-linecap:round;stroke-linejoin:round;" d="M258.953,187.654  c0-12.619-2.38-25.099-7.025-36.832c-5.032-12.712-12.614-24.255-22.281-33.922c-9.668-9.668-21.211-17.25-33.923-22.283  c-11.733-4.645-24.214-7.026-36.833-7.026c-12.618,0-25.099,2.38-36.832,7.025c-12.712,5.032-24.255,12.614-33.922,22.281  c-9.668,9.668-17.25,21.211-22.283,33.923c-4.645,11.733-7.026,24.214-7.026,36.833c0,12.618,2.381,25.099,7.025,36.832  c5.032,12.712,12.614,24.255,22.281,33.922c9.668,9.668,21.211,17.25,33.923,22.283c11.733,4.645,24.214,7.026,36.834,7.026  c12.619,0,25.099-2.381,36.832-7.025c12.712-5.032,24.255-12.614,33.922-22.281c9.668-9.668,17.25-21.211,22.283-33.923  C256.572,212.754,258.953,200.273,258.953,187.654z"/>

<rect x="290.909" y="301.414" width="0.566" height="0.566" style="fill:none;stroke:#000000;stroke-linecap:round;stroke-linejoin:round;"/>

<g>
	<rect x="290.909" y="72.941" width="0.566" height="0.566" style="fill:none;stroke:#000000;stroke-linecap:round;stroke-linejoin:round;"/>
	<rect x="519.382" y="72.941" width="0.566" height="0.566" style="fill:none;stroke:#000000;stroke-linecap:round;stroke-linejoin:round;"/>
	<rect x="519.382" y="301.414" width="0.566" height="0.566" style="fill:none;stroke:#000000;stroke-linecap:round;stroke-linejoin:round;"/>
	<rect x="290.909" y="301.414" width="0.566" height="0.566" style="fill:none;stroke:#000000;stroke-linecap:round;stroke-linejoin:round;"/>
</g>
<g>
	<rect x="44.795" y="72.941" width="0.566" height="0.566" style="fill:none;stroke:#000000;stroke-linecap:round;stroke-linejoin:round;"/>
	<rect x="273.267" y="72.941" width="0.566" height="0.566" style="fill:none;stroke:#000000;stroke-linecap:round;stroke-linejoin:round;"/>
	<rect x="273.267" y="301.414" width="0.566" height="0.566" style="fill:none;stroke:#000000;stroke-linecap:round;stroke-linejoin:round;"/>
	<rect x="44.795" y="301.414" width="0.566" height="0.566" style="fill:none;stroke:#000000;stroke-linecap:round;stroke-linejoin:round;"/>
</g>
<g>
	<rect x="44.795" y="322.519" width="0.566" height="0.566" style="fill:none;stroke:#000000;stroke-linecap:round;stroke-linejoin:round;"/>
	<rect x="273.267" y="322.519" width="0.566" height="0.566" style="fill:none;stroke:#000000;stroke-linecap:round;stroke-linejoin:round;"/>
	<rect x="273.267" y="550.991" width="0.566" height="0.566" style="fill:none;stroke:#000000;stroke-linecap:round;stroke-linejoin:round;"/>
	<rect x="44.795" y="550.991" width="0.566" height="0.566" style="fill:none;stroke:#000000;stroke-linecap:round;stroke-linejoin:round;"/>
</g>
<g>
	<rect x="290.909" y="322.519" width="0.566" height="0.566" style="fill:none;stroke:#000000;stroke-linecap:round;stroke-linejoin:round;"/>
	<rect x="519.382" y="322.519" width="0.566" height="0.566" style="fill:none;stroke:#000000;stroke-linecap:round;stroke-linejoin:round;"/>
	<rect x="519.382" y="550.991" width="0.566" height="0.566" style="fill:none;stroke:#000000;stroke-linecap:round;stroke-linejoin:round;"/>
	<rect x="290.909" y="550.991" width="0.566" height="0.566" style="fill:none;stroke:#000000;stroke-linecap:round;stroke-linejoin:round;"/>
</g>
<path style="fill:none;stroke:#000000;stroke-linecap:round;stroke-linejoin:round;" d="M505.492,187.461  c0-12.619-2.381-25.099-7.025-36.832c-5.032-12.712-12.614-24.254-22.281-33.922c-9.668-9.668-21.211-17.25-33.923-22.283  c-11.733-4.645-24.214-7.026-36.834-7.026c-12.619,0-25.099,2.381-36.832,7.025c-12.712,5.032-24.255,12.614-33.922,22.281  c-9.668,9.668-17.25,21.211-22.283,33.923c-4.645,11.733-7.026,24.214-7.026,36.834c0,12.618,2.38,25.099,7.025,36.832  c5.032,12.712,12.614,24.255,22.281,33.922c9.668,9.668,21.211,17.25,33.923,22.283c11.733,4.645,24.214,7.026,36.833,7.026  c12.618,0,25.099-2.381,36.832-7.025c12.712-5.032,24.255-12.614,33.922-22.281c9.668-9.668,17.25-21.211,22.283-33.923  C503.111,212.562,505.492,200.08,505.492,187.461z"/>
<path style="fill:none;stroke:#000000;stroke-linecap:round;stroke-linejoin:round;" d="M519.665,187.461  c0-14.406-2.718-28.654-8.02-42.049c-5.745-14.512-14.401-27.69-25.437-38.727c-11.037-11.037-24.215-19.694-38.728-25.439  c-13.395-5.303-27.644-8.021-42.051-8.021c-14.406,0-28.654,2.718-42.049,8.02c-14.512,5.745-27.69,14.401-38.727,25.437  c-11.037,11.037-19.694,24.215-25.439,38.728c-5.303,13.395-8.021,27.644-8.021,42.051c0,14.406,2.718,28.654,8.02,42.049  c5.745,14.512,14.401,27.69,25.437,38.727c11.037,11.037,24.215,19.694,38.728,25.439c13.395,5.303,27.644,8.021,42.051,8.021  c14.406,0,28.654-2.718,42.049-8.02c14.512-5.745,27.69-14.401,38.727-25.437c11.037-11.037,19.694-24.215,25.439-38.728  C516.947,216.117,519.665,201.868,519.665,187.461z"/>
<path style="fill:none;stroke:#000000;stroke-linecap:round;stroke-linejoin:round;" d="M519.665,437.038  c0-14.406-2.718-28.654-8.02-42.049c-5.745-14.512-14.401-27.69-25.437-38.727c-11.037-11.037-24.215-19.694-38.728-25.439  c-13.395-5.303-27.644-8.021-42.051-8.021c-14.406,0-28.654,2.718-42.049,8.02c-14.512,5.745-27.69,14.401-38.727,25.437  c-11.037,11.037-19.694,24.215-25.439,38.728c-5.303,13.395-8.021,27.644-8.021,42.051c0,14.406,2.718,28.654,8.02,42.049  c5.745,14.512,14.401,27.69,25.437,38.727c11.037,11.037,24.215,19.694,38.728,25.439c13.395,5.303,27.644,8.021,42.051,8.021  c14.406,0,28.654-2.718,42.049-8.02c14.512-5.745,27.69-14.401,38.727-25.437c11.037-11.037,19.694-24.215,25.439-38.728  C516.947,465.694,519.665,451.445,519.665,437.038z"/>
<path style="fill:none;stroke:#000000;stroke-linecap:round;stroke-linejoin:round;" d="M505.492,437.038  c0-12.619-2.381-25.099-7.025-36.832c-5.032-12.712-12.614-24.255-22.281-33.922c-9.668-9.668-21.211-17.25-33.923-22.283  c-11.733-4.645-24.214-7.026-36.834-7.026c-12.619,0-25.099,2.381-36.832,7.025c-12.712,5.032-24.255,12.614-33.922,22.281  c-9.668,9.668-17.25,21.211-22.283,33.923c-4.645,11.733-7.026,24.214-7.026,36.834c0,12.618,2.38,25.099,7.025,36.832  c5.032,12.712,12.614,24.255,22.281,33.922c9.668,9.668,21.211,17.25,33.923,22.283c11.733,4.645,24.214,7.026,36.833,7.026  c12.618,0,25.099-2.381,36.832-7.025c12.712-5.032,24.255-12.614,33.922-22.281c9.668-9.668,17.25-21.211,22.283-33.923  C503.111,462.139,505.492,449.658,505.492,437.038z"/>
<path style="fill:none;stroke:#000000;stroke-linecap:round;stroke-linejoin:round;" d="M259.378,437.038  c0-12.619-2.38-25.099-7.025-36.832c-5.032-12.712-12.614-24.255-22.281-33.922c-9.668-9.668-21.211-17.25-33.923-22.283  c-11.733-4.645-24.214-7.026-36.833-7.026c-12.618,0-25.099,2.381-36.832,7.025c-12.712,5.032-24.255,12.614-33.922,22.281  c-9.668,9.668-17.25,21.211-22.283,33.923c-4.645,11.733-7.026,24.214-7.026,36.834c0,12.618,2.381,25.099,7.025,36.832  c5.032,12.712,12.614,24.255,22.281,33.922c9.668,9.668,21.211,17.25,33.923,22.283c11.733,4.645,24.214,7.026,36.833,7.026  c12.619,0,25.099-2.381,36.832-7.025c12.712-5.032,24.255-12.614,33.922-22.281c9.668-9.668,17.25-21.211,22.283-33.923  C256.997,462.139,259.378,449.658,259.378,437.038z"/>
<path style="fill:none;stroke:#000000;stroke-linecap:round;stroke-linejoin:round;" d="M273.551,437.038  c0-14.406-2.718-28.654-8.02-42.049c-5.745-14.512-14.401-27.69-25.437-38.727c-11.037-11.037-24.215-19.694-38.728-25.439  c-13.395-5.303-27.644-8.021-42.051-8.021c-14.406,0-28.654,2.718-42.049,8.02c-14.512,5.745-27.69,14.401-38.727,25.437  c-11.037,11.037-19.694,24.215-25.439,38.728c-5.303,13.395-8.021,27.644-8.021,42.051c0,14.406,2.718,28.654,8.02,42.049  c5.745,14.512,14.401,27.69,25.437,38.727c11.037,11.037,24.215,19.694,38.728,25.439c13.395,5.303,27.644,8.021,42.051,8.021  c14.406,0,28.654-2.718,42.049-8.02c14.512-5.745,27.69-14.401,38.727-25.437c11.037-11.037,19.694-24.215,25.439-38.728  C270.833,465.694,273.551,451.445,273.551,437.038z"/>
<g>
	<text transform="matrix(1 0 0 1 383.1352 197.4189)" style="fill:#241F1F; font-family:'FbKidushPro'; font-size:15.6369px;">
ימין למעלה</text>
</g>
<g>
	<text transform="matrix(1 0 0 1 121.6181 197.4189)" style="fill:#241F1F; font-family:'FbKidushPro'; font-size:15.6369px;">
שמאל למעלה</text>
</g>
<g>
	<text transform="matrix(1 0 0 1 378.0004 451.9153)" style="fill:#241F1F; font-family:'FbKidushPro'; font-size:15.6369px;">
ימין למטה</text>
</g>
<g>
	<text transform="matrix(1 0 0 1 124.0589 451.9153)" style="fill:#241F1F; font-family:'FbKidushPro'; font-size:15.6369px;">
שמאל למטה</text>
</g>
<g>
	<path id="SVGID_x5F_00000029751735280841322270000017763064544202789534_x5F_" transform="rotate(180.09 405.429 187.461)" style="fill:none;" d="M405.58,87.783   c55.755,0,100.954,45.199,100.954,100.955c0,55.754-45.199,100.954-100.954,100.954c-55.755,0-100.952-45.199-100.952-100.954   C304.628,132.982,349.826,87.783,405.58,87.783z"/>
	<text style="fill:#1B181C; font-family:'FbKidushPro'; font-size:13.00px;" dominant-baseline="central" dy="-0.6188em" alignment-baseline="middle">	<textPath xlink:href="#SVGID_x5F_00000029751735280841322270000017763064544202789534_x5F_" text-anchor="middle" startOffset="50%" dominant-baseline="central" alignment-baseline="middle">
עץ חיים היא למחזיקים בה ותומכיה מאושר	</textPath>
</text>
</g>
<g>
	<path id="SVGID_x5F_1_x5F_" style="fill:none;" transform="rotate(91.14 405.429 187.461)" d="M293.627,188.358c0.86,61.756,51.622,111.121,113.379,110.26   c61.755-0.86,111.122-51.62,110.262-113.376c-0.86-61.756-51.622-111.122-113.377-110.262   C342.133,75.841,292.766,126.602,293.627,188.358z"/>
	<text style="fill:#1B181C; font-family:'FbKidushPro'; font-size:13.00px;" dominant-baseline="central" dy="-0.5847em" alignment-baseline="middle">	<textPath xlink:href="#SVGID_x5F_1_x5F_" text-anchor="middle" startOffset="50%" dominant-baseline="central" alignment-baseline="middle">
לא ימושו מפיך ומפי זרעך ומפי זרע זרעך אמר ה' מעתה ועד עולם	</textPath>
</text>
</g>
<g>
	<path id="SVGID_x5F_00000154384014674431396570000011543666870348428425_x5F_" transform="rotate(82.25 159.315 187.461)" style="fill:none;" d="M259.916,201.462   c-7.605,55.672-58.903,94.639-114.575,87.034c-55.673-7.605-94.639-58.904-87.033-114.576   c7.606-55.673,58.902-94.639,114.575-87.033C228.555,94.492,267.521,145.788,259.916,201.462z"/>
	<text style="fill:#1B181C; font-family:'FbKidushPro'; font-size:13.00px;" dominant-baseline="central" dy="-0.6181em" alignment-baseline="middle">	<textPath xlink:href="#SVGID_x5F_00000154384014674431396570000011543666870348428425_x5F_" text-anchor="middle" startOffset="50%" dominant-baseline="central" alignment-baseline="middle">
כי מציון תצא תורה ודבר ה' מירושלים	</textPath>
</text>
</g>
<g>
	<path id="SVGID_x5F_00000071542392570683446450000003460141349617636007_x5F_" transform="rotate(179.16 159.315 187.461)" style="fill:none;" d="M157.047,300.395   c62.245,1.14,113.628-48.396,114.768-110.64c1.14-62.245-48.395-113.628-110.64-114.768   c-62.244-1.14-113.628,48.395-114.768,110.64C45.268,247.871,94.804,299.255,157.047,300.395z"/>
	<text style="fill:#1B181C; font-family:'FbKidushPro'; font-size:13.00px;" dominant-baseline="central" dy="-0.6582em" alignment-baseline="middle">	<textPath xlink:href="#SVGID_x5F_00000071542392570683446450000003460141349617636007_x5F_" text-anchor="middle" startOffset="50%" dominant-baseline="central" alignment-baseline="middle">
תורת ה' תמימה משיבת נפש עדות ה' נאמנה מחכימת פתי	</textPath>
</text>
</g>
<g>
<path id="SVGID_x5F_00000162325065573344512830000007427546448858915475_x5F_" transform="rotate(65.61 405.678 437.038)" style="fill:none;" d="M498.744,479.196   c-23.215,51.398-83.703,74.244-135.101,51.028c-51.397-23.215-74.244-83.702-51.029-135.1s83.702-74.243,135.099-51.028   C499.112,367.313,521.959,427.799,498.744,479.196z"/>	
	<text style="fill:#1B181C; font-family:'FbKidushPro'; font-size:13.00px;" dominant-baseline="central" dy="-0.6094em" alignment-baseline="middle">	<textPath xlink:href="#SVGID_x5F_00000162325065573344512830000007427546448858915475_x5F_" text-anchor="middle" startOffset="50%" dominant-baseline="central" alignment-baseline="middle">
שלום רב לאוהבי תורתך ואין למו מכשול	</textPath>
</text>
</g>
<g>
	<path id="SVGID_x5F_00000150822822742925585660000011156596893470210700_x5F_" transform="rotate(89.21 405.678 437.038)" style="fill:none;" d="M293.428,435.582   c-0.898,61.916,48.568,112.836,110.485,113.735c61.916,0.898,112.838-48.566,113.736-110.482   c0.898-61.916-48.568-112.838-110.483-113.736C345.249,324.2,294.327,373.666,293.428,435.582z"/>
	<text style="fill:#1B181C; font-family:'FbKidushPro'; font-size:13.00px;" dominant-baseline="central" dy="-0.5078em" alignment-baseline="middle">	<textPath xlink:href="#SVGID_x5F_00000150822822742925585660000011156596893470210700_x5F_" text-anchor="middle" startOffset="50%" dominant-baseline="central" alignment-baseline="middle">
וזאת התורה אשר שם משה לפני בני ישראל	</textPath>
</text>
</g>
<g>
	<path id="SVGID_x5F_00000165204821248942278330000010370126669912348346_x5F_" transform="rotate(2.25 159.548 437.038)" style="fill:none;" d="M163.792,539.009   c-56.37,2.343-103.968-41.456-106.31-97.825c-2.343-56.371,41.457-103.968,97.826-106.311   c56.371-2.343,103.966,41.456,106.309,97.827C263.959,489.07,220.162,536.667,163.792,539.009z"/>
	<text style="fill:#1B181C; font-family:'FbKidushPro'; font-size:13.00px;" dominant-baseline="central" dy="-0.5196em" alignment-baseline="middle">	<textPath xlink:href="#SVGID_x5F_00000165204821248942278330000010370126669912348346_x5F_" text-anchor="middle" startOffset="50%" dominant-baseline="central" alignment-baseline="middle">
ועתה כתבו לכם את השירה הזאת ולמדה את בני ישראל	</textPath>
</text>
</g>
<g>
	<path id="SVGID_x5F_00000004539540686523852110000005535008172133914792_x5F_" transform="rotate(0.12 159.548 437.038)" style="fill:none;" d="M159.548,324.086   c-62.329,0-112.855,50.528-112.855,112.857c0,62.328,50.526,112.855,112.855,112.855c62.328,0.001,112.857-50.526,112.857-112.855   C272.404,374.614,221.875,324.086,159.548,324.086z"/>
	<text style="fill:#1B181C; font-family:'FbKidushPro'; font-size:13.00px;" dominant-baseline="central" dy="-0.6658em" alignment-baseline="middle">	<textPath xlink:href="#SVGID_x5F_00000004539540686523852110000005535008172133914792_x5F_" text-anchor="middle" startOffset="50%" dominant-baseline="central" alignment-baseline="middle">
ארך ימים בימינה בשמאלה עשר וכבוד	</textPath>
</text>
</g>
</svg>